<?xml version="1.0" standalone="no"?><!DOCTYPE svg PUBLIC "-//W3C//DTD SVG 1.1//EN" "http://www.w3.org/Graphics/SVG/1.1/DTD/svg11.dtd"><svg t="1736823692899" class="icon" viewBox="0 0 1024 1024" version="1.1" xmlns="http://www.w3.org/2000/svg" p-id="2837" xmlns:xlink="http://www.w3.org/1999/xlink" width="128" height="128"><path d="M815.020408 1024H208.979592C94.040816 1024 0 929.959184 0 815.020408V208.979592C0 94.040816 94.040816 0 208.979592 0h606.040816c114.938776 0 208.979592 94.040816 208.979592 208.979592v606.040816c0 114.938776-94.040816 208.979592-208.979592 208.979592z" fill="#1AD7BE" p-id="2838"></path><path d="M752.326531 208.979592H271.673469c-34.481633 0-62.693878 28.212245-62.693877 62.693877v323.918368c0 34.481633 28.212245 62.693878 62.693877 62.693877h480.653062c34.481633 0 62.693878-28.212245 62.693877-62.693877V271.673469c0-34.481633-28.212245-62.693878-62.693877-62.693877z" fill="#FFFFFF" fill-opacity=".88" p-id="2839"></path><path d="M700.081633 261.22449H323.918367c-34.481633 0-62.693878 28.212245-62.693877 62.693877v219.428572c0 34.481633 28.212245 62.693878 62.693877 62.693877h376.163266c34.481633 0 62.693878-28.212245 62.693877-62.693877V323.918367c0-34.481633-28.212245-62.693878-62.693877-62.693877z" fill="#FFFFFF" p-id="2840"></path><path d="M658.285714 752.326531H365.714286c6.269388-7.314286 15.673469-21.942857 20.897959-41.795919 6.269388-22.987755 2.089796-42.840816 0-52.244898h250.77551c-2.089796 9.404082-6.269388 29.257143 0 52.244898 5.22449 19.853061 14.628571 34.481633 20.897959 41.795919z" fill="#FFFFFF" opacity=".6" p-id="2841"></path><path d="M710.530612 815.020408H313.469388c-17.763265 0-31.346939-13.583673-31.346939-31.346939s13.583673-31.346939 31.346939-31.346938h397.061224c17.763265 0 31.346939 13.583673 31.346939 31.346938s-13.583673 31.346939-31.346939 31.346939z" fill="#FFFFFF" opacity=".88" p-id="2842"></path><path d="M656.195918 368.84898c-10.44898-9.404082-27.167347-7.314286-36.571428 3.134693L553.795918 437.812245h-1.044898l-55.379591-55.379592-11.493878-11.493877c-2.089796-1.044898-7.314286-5.22449-15.673469-5.22449s-13.583673 4.179592-15.67347 5.22449l-11.493877 11.493877-75.232653 75.232653c-9.404082 9.404082-11.493878 26.122449-3.134694 36.571429 10.44898 11.493878 28.212245 12.538776 38.661224 2.089796l66.87347-66.87347h1.044898l55.379591 55.379592 11.493878 11.493878c2.089796 1.044898 7.314286 5.22449 15.673469 5.224489s13.583673-4.179592 15.67347-5.224489l11.493877-11.493878L658.285714 407.510204c10.44898-10.44898 10.44898-28.212245-2.089796-38.661224z" fill="#1AD7BE" p-id="2843"></path></svg>